<?xml version="1.0" standalone="no"?>
<!DOCTYPE svg PUBLIC "-//W3C//DTD SVG 20010904//EN"
 "http://www.w3.org/TR/2001/REC-SVG-20010904/DTD/svg10.dtd">
<svg version="1.0" xmlns="http://www.w3.org/2000/svg"
 width="250.000000pt" height="186.000000pt" viewBox="0 0 250.000000 186.000000"
 preserveAspectRatio="xMidYMid meet">

<g transform="translate(0.000000,186.000000) scale(0.100000,-0.100000)"
fill="#000000" stroke="none">
<path d="M535 1850 c-417 -5 -420 -5 -452 -28 -17 -12 -42 -39 -55 -60 l-23
-37 -3 -773 c-2 -547 1 -785 9 -815 14 -52 72 -111 124 -126 27 -7 231 -11
631 -11 l590 0 50 25 c28 14 59 40 74 62 l25 37 2 795 3 796 -23 40 c-12 21
-40 51 -62 66 -40 27 -40 27 -255 31 -118 1 -404 1 -635 -2z m776 -199 l29
-29 0 -692 0 -692 -29 -29 -29 -29 -527 0 -526 0 -24 25 -25 24 0 696 c0 474
3 703 11 716 6 11 20 24 32 29 12 5 255 9 540 9 l519 1 29 -29z"/>
<path d="M329 1511 l-29 -29 0 -162 0 -162 29 -29 29 -29 271 0 c148 0 281 4
295 10 46 17 56 55 56 210 0 149 -9 188 -49 210 -12 6 -126 10 -296 10 l-277
0 -29 -29z m501 -121 c27 -27 28 -110 2 -133 -23 -21 -362 -28 -387 -7 -10 8
-15 30 -15 71 0 86 6 89 212 89 155 0 170 -2 188 -20z"/>
<path d="M1693 1775 c-33 -14 -48 -44 -41 -84 2 -11 70 -88 152 -171 l150
-150 -152 -153 c-138 -139 -152 -157 -152 -188 0 -46 34 -79 80 -79 30 0 50
16 187 152 l153 152 153 -152 c139 -138 157 -152 188 -152 48 0 79 30 79 78 0
34 -11 48 -151 188 l-151 152 151 148 c148 145 151 149 151 191 0 35 -5 46
-26 59 -58 38 -73 29 -240 -137 l-154 -154 -148 148 c-81 81 -154 152 -162
157 -20 13 -29 12 -67 -5z"/>
</g>
</svg>
