<?xml version="1.0" standalone="no"?>
<!DOCTYPE svg PUBLIC "-//W3C//DTD SVG 20010904//EN"
 "http://www.w3.org/TR/2001/REC-SVG-20010904/DTD/svg10.dtd">
<svg version="1.0" xmlns="http://www.w3.org/2000/svg"
 width="250.000000pt" height="250.000000pt" viewBox="0 0 250.000000 250.000000"
 preserveAspectRatio="xMidYMid meet">

<g transform="translate(0.000000,250.000000) scale(0.100000,-0.100000)"
fill="#000000" stroke="none">
<path d="M1085 2389 c-373 -54 -714 -308 -876 -653 -291 -621 27 -1357 681
-1576 597 -201 1249 127 1450 730 200 596 -127 1249 -728 1450 -161 54 -363
73 -527 49z m411 -118 c188 -46 355 -141 494 -281 141 -140 229 -296 281 -495
34 -130 34 -360 0 -490 -51 -198 -141 -355 -281 -495 -186 -186 -419 -292
-680 -307 -438 -25 -849 228 -1022 630 -66 152 -82 237 -82 422 1 139 4 173
27 257 92 347 360 631 694 737 54 17 85 24 203 45 59 11 288 -4 366 -23z"/>
<path d="M1216 2134 c-14 -13 -16 -62 -16 -379 l0 -364 -30 -16 c-44 -23 -74
-87 -67 -144 l5 -46 -154 -156 c-157 -158 -171 -180 -138 -213 33 -33 55 -19
213 138 l156 154 46 -5 c88 -10 169 60 169 147 0 44 -35 107 -70 125 l-30 16
0 364 c0 317 -2 366 -16 379 -8 9 -24 16 -34 16 -10 0 -26 -7 -34 -16z"/>
</g>
</svg>
