<?xml version="1.0" standalone="no"?>
<!DOCTYPE svg PUBLIC "-//W3C//DTD SVG 20010904//EN"
 "http://www.w3.org/TR/2001/REC-SVG-20010904/DTD/svg10.dtd">
<svg version="1.0" xmlns="http://www.w3.org/2000/svg"
 width="96.000000pt" height="96.000000pt" viewBox="0 0 96.000000 96.000000"
 preserveAspectRatio="xMidYMid meet">

<g transform="translate(0.000000,96.000000) scale(0.100000,-0.100000)"
fill="#000000" stroke="none">
<path d="M454 907 c-3 -8 -4 -39 -2 -68 3 -50 5 -54 28 -54 24 0 25 2 25 65 0
60 -2 65 -23 68 -12 2 -24 -3 -28 -11z"/>
<path d="M167 793 c-15 -14 -6 -40 22 -67 54 -52 97 -9 45 45 -27 28 -53 37
-67 22z"/>
<path d="M746 771 c-31 -32 -32 -64 -1 -69 26 -4 78 49 73 75 -5 29 -41 27
-72 -6z"/>
<path d="M343 715 c-91 -46 -114 -101 -127 -300 -9 -127 -14 -155 -31 -155
-28 0 -45 -31 -45 -80 0 -83 -12 -80 340 -80 352 0 340 -3 340 80 0 49 -17 80
-45 80 -17 0 -22 28 -31 155 -13 199 -36 254 -127 300 -43 21 -65 25 -137 25
-72 0 -94 -4 -137 -25z m112 -74 c0 -19 -7 -27 -31 -33 -58 -15 -65 -34 -78
-189 -9 -115 -14 -144 -28 -153 -13 -8 -21 -7 -29 1 -20 20 3 293 28 334 36
63 138 92 138 40z"/>
<path d="M64 506 c-13 -35 3 -47 58 -44 49 3 53 5 53 28 0 23 -4 25 -53 28
-40 2 -54 -1 -58 -12z"/>
<path d="M784 506 c-13 -35 3 -47 58 -44 49 3 53 5 53 28 0 23 -4 25 -53 28
-40 2 -54 -1 -58 -12z"/>
</g>
</svg>
